<?xml version="1.0" standalone="no"?>
<!DOCTYPE svg PUBLIC "-//W3C//DTD SVG 20010904//EN"
 "http://www.w3.org/TR/2001/REC-SVG-20010904/DTD/svg10.dtd">
<svg version="1.0" xmlns="http://www.w3.org/2000/svg"
 width="1024.000000pt" height="1024.000000pt" viewBox="0 0 1024.000000 1024.000000"
 preserveAspectRatio="xMidYMid meet">

<g transform="translate(0.000000,1024.000000) scale(0.100000,-0.100000)"
fill="#000000" stroke="none">
<path d="M4845 8484 c-530 -55 -955 -178 -1380 -398 -348 -181 -635 -391 -875
-643 -529 -554 -843 -1207 -956 -1988 -24 -165 -24 -541 0 -715 106 -777 427
-1468 935 -2015 241 -259 498 -457 827 -639 578 -318 1270 -480 1874 -436 902
65 1657 395 2284 999 122 118 342 389 458 566 274 418 467 949 543 1495 22
156 30 477 16 625 -77 801 -439 1582 -986 2130 -167 167 -311 285 -527 428
-462 307 -916 479 -1496 568 -106 16 -198 21 -407 24 -148 2 -288 1 -310 -1z
m718 -423 c919 -144 1713 -663 2175 -1423 166 -272 283 -547 362 -851 46 -176
48 -187 23 -164 -10 8 -115 79 -233 158 -118 78 -467 309 -775 514 -642 426
-679 450 -796 504 -379 178 -832 279 -1203 269 -69 -1 -126 -1 -126 2 1 12
234 111 325 138 155 46 233 55 417 49 140 -4 180 -9 278 -35 165 -44 340 -106
455 -162 122 -60 759 -481 1053 -697 31 -23 59 -40 61 -38 6 7 -60 127 -127
230 -111 172 -212 295 -362 445 -316 317 -648 509 -995 577 -121 23 -356 23
-485 0 -250 -46 -457 -128 -925 -366 -159 -82 -445 -226 -635 -321 l-345 -173
-505 -339 c-278 -186 -649 -435 -824 -553 -176 -118 -321 -213 -323 -211 -2 2
12 63 31 137 95 366 234 679 438 984 239 359 502 619 863 857 406 267 838 419
1375 483 180 21 626 14 803 -14z m-1293 -1374 c-520 -287 -855 -752 -956
-1324 -21 -119 -23 -399 -5 -518 18 -117 67 -312 97 -385 183 -451 505 -816
897 -1014 42 -22 76 -41 74 -42 -5 -5 -206 61 -287 94 -97 39 -299 147 -409
218 -208 136 -317 240 -433 417 -318 486 -354 1192 -87 1732 151 306 392 526
794 726 108 53 357 147 395 148 8 1 -28 -23 -80 -52z m1722 -13 c144 -50 371
-155 483 -224 273 -168 453 -365 579 -635 98 -208 143 -407 152 -660 14 -383
-76 -720 -270 -1020 -79 -121 -155 -205 -269 -296 -241 -195 -502 -336 -778
-424 -111 -35 -117 -31 -24 18 320 169 586 413 759 699 112 184 204 420 248
639 20 98 23 144 23 319 -1 184 -3 218 -28 331 -114 536 -459 995 -940 1250
-51 27 -87 49 -80 49 6 0 71 -21 145 -46z m-692 -229 c141 -21 261 -59 395
-125 388 -188 656 -535 746 -963 26 -123 31 -360 11 -477 -48 -267 -159 -508
-319 -690 -208 -236 -462 -384 -776 -452 -82 -17 -135 -22 -272 -22 -151 0
-184 3 -290 28 -346 80 -645 283 -834 565 -109 163 -152 265 -209 491 -23 92
-26 126 -26 275 -1 193 10 269 61 430 161 505 568 858 1083 940 115 18 314 18
430 0z m2245 -731 c84 -59 612 -413 892 -598 18 -11 33 -23 33 -26 -1 -3 -33
-25 -73 -49 -114 -70 -635 -420 -827 -557 -96 -68 -176 -124 -178 -124 -4 0
100 150 197 285 119 166 217 276 331 368 41 33 79 64 83 68 5 4 -13 26 -40 50
-146 130 -334 353 -517 613 -56 78 -53 77 99 -30z m-4871 -71 c-169 -228 -325
-408 -429 -495 -33 -28 -60 -54 -60 -58 0 -3 41 -41 90 -82 115 -97 203 -188
297 -308 114 -147 238 -321 238 -335 0 -4 -17 6 -37 22 -21 16 -231 157 -468
313 -236 156 -465 308 -508 338 l-77 54 127 83 c71 46 310 205 533 354 223
149 406 271 408 271 1 0 -50 -71 -114 -157z m5432 -1224 c-74 -307 -194 -603
-356 -884 -146 -253 -405 -561 -634 -753 -854 -716 -1992 -928 -3041 -568
-406 139 -815 386 -1114 671 -153 146 -350 390 -485 600 -99 154 -229 431
-295 630 -68 204 -134 445 -121 445 4 0 43 -24 86 -53 358 -243 753 -515 1094
-752 574 -399 661 -449 976 -558 267 -93 663 -144 921 -120 115 11 111 4 -40
-70 -210 -104 -332 -131 -582 -131 -151 0 -197 3 -283 22 -208 46 -430 136
-620 251 -191 115 -631 423 -870 610 -79 61 -145 111 -148 111 -12 0 83 -163
181 -310 218 -327 437 -551 734 -751 426 -287 849 -352 1315 -203 222 72 359
134 741 339 116 62 318 168 450 237 296 153 383 206 705 423 267 180 348 235
775 530 340 235 639 435 643 431 2 -2 -13 -68 -32 -147z"/>
<path d="M4895 7794 c-16 -2 -73 -9 -125 -15 -463 -53 -904 -208 -1255 -443
-265 -177 -470 -367 -643 -596 -116 -155 -272 -403 -260 -416 4 -4 48 26 273
186 217 154 627 429 720 483 44 25 152 77 240 115 175 76 297 135 498 244 73
39 301 156 506 260 l375 188 -150 -1 c-82 -1 -162 -4 -179 -5z"/>
<path d="M4955 6139 c-218 -29 -450 -136 -588 -272 -188 -185 -293 -422 -313
-708 -32 -450 258 -903 678 -1059 433 -160 938 -8 1203 365 298 417 263 981
-85 1348 -154 162 -340 268 -550 312 -89 18 -260 26 -345 14z m-83 -338 c74
-36 133 -94 170 -169 30 -59 33 -76 33 -152 0 -76 -3 -93 -33 -152 -40 -82
-111 -149 -190 -178 -82 -31 -206 -25 -284 13 -66 32 -131 100 -161 165 -32
72 -35 200 -7 274 36 95 127 183 223 214 63 21 191 13 249 -15z"/>
<path d="M7490 3786 c-338 -249 -888 -609 -1115 -731 -49 -27 -202 -110 -340
-185 -352 -193 -750 -394 -990 -500 l-70 -31 240 5 c246 5 345 17 545 65 622
149 1193 516 1557 999 114 151 273 405 273 436 0 13 -18 2 -100 -58z"/>
</g>
</svg>
